<?xml version="1.0" encoding="utf-8"?>
<!-- Generator: Adobe Illustrator 19.0.0, SVG Export Plug-In . SVG Version: 6.00 Build 0)  -->
<svg version="1.1" id="Layer_1" xmlns="http://www.w3.org/2000/svg" xmlns:xlink="http://www.w3.org/1999/xlink" x="0px" y="0px"
	 viewBox="0 0 500 500" style="enable-background:new 0 0 500 500;" xml:space="preserve">
<g id="XMLID_1_">
	<path id="XMLID_392_" d="M82.9,217.6c16,27.2,32.9,52.8,59.8,70.5c5.1,3.4,8.9,10.3,10.9,16.4c4.8,14.6,8.3,29.7,13.1,47.8
		c6.4-14.5,11.6-26.3,17.7-40.3c43,19.6,86.3,15.6,129.7,0.6c5.7,13.3,10.7,25,17.1,39.8c4.8-17.6,8.1-32.3,13.1-46.5
		c2.4-6.8,6.5-14.7,12.3-18.4c25.2-16.3,41.8-39.3,54.6-65.7c0.7-1.5,1.6-3,2.5-4.5c0.1-0.2,0.8-0.2,3.3-0.6
		c-0.3,64.1-23.7,117-74,155.6c-54.5,41.8-114.5,43.1-173.4,10.9C104.9,347.8,85.1,286.6,82.9,217.6z"/>
	<g id="XMLID_2_">
		<path id="XMLID_370_" d="M366.9,94.2c13.4,8.3,25.6,15.8,39.1,24.1c-12.9,14.8-24.9,28.5-38,43.4c11.2,9,22,17.6,33.4,26.8
			c-8,12.4-15.8,24.4-24.4,37.7c-12-9-23.7-17.8-36.2-27.3c-8.6,11.9-16.6,23-25.1,34.7c-10.7-8.1-20.6-15.6-32.6-24.7
			c7.8-11.8,15.3-23.3,24.1-36.5c-9.3-6-19.6-12.7-31.2-20.2c4.3-11.2,8.8-22.7,13.9-35.8c14.6,7.8,28.5,15.2,43.5,23.2
			C344.3,124.7,355.1,110.1,366.9,94.2z"/>
		<path id="XMLID_362_" d="M153,198.4c-10.1,7.5-19.4,14.4-29.3,21.7c-5.4-8.2-10.6-16.2-16.3-25.1c7.9-6.1,15.4-12,24.9-19.3
			c-12.8-14.8-25.2-29.1-38.2-44.2c9.8-8.1,18.7-15.3,28.5-23.4c11.7,12.5,22.8,24.4,34.7,37c14.7-8.5,29.2-16.8,44.7-25.8
			c7,12.1,13.4,23.2,20.7,35.6c-12.1,7-23.6,13.6-36.2,21c10.8,12.4,21.1,24.4,32.2,37.2c-12,6.8-23.5,13.3-35.9,20.3
			C172.9,221.7,163.5,210.8,153,198.4z"/>
		<path id="XMLID_346_" d="M221.8,247.6c18.9,0,37.7,0,56.5,0c-2.4,14-13,27.3-31,37c-9-10.7-18.4-21.7-27.7-32.8
			C220.3,250.5,221,249,221.8,247.6z"/>
	</g>
</g>
</svg>
