<?xml version="1.0" encoding="utf-8"?>
<!-- Generator: Adobe Illustrator 19.0.0, SVG Export Plug-In . SVG Version: 6.00 Build 0)  -->
<svg version="1.1" id="Layer_1" xmlns="http://www.w3.org/2000/svg" xmlns:xlink="http://www.w3.org/1999/xlink" x="0px" y="0px"
	 viewBox="0 0 500 500" style="enable-background:new 0 0 500 500;" xml:space="preserve">
<g id="XMLID_1_">
	<path id="XMLID_2_" d="M152.3,190.5c16.2,11.6,34.1,16.1,53.2,6.5c16.3-8.1,25.4-22.7,26.6-42.9c-57.4,15.8-96.1-14.9-131.9-53.8
		C108.3,136.4,121.7,168.6,152.3,190.5z"/>
	<path id="XMLID_7_" d="M355.8,192.2c32.7-21.3,46.5-54.7,54.5-91.5c-36.1,39.1-75,69.5-132.9,53.1
		C284.3,197,321.1,214.8,355.8,192.2z"/>
	<path id="XMLID_8_" d="M292.6,268.3c-12.1-21.7-22.6-40.5-34.7-62.2c-12.4,22.1-22.6,40.5-34.7,62.2
		C247.4,268.3,267.9,268.3,292.6,268.3z"/>
	<path id="XMLID_9_" d="M401.7,255.3l-18.5,16l16.4,19c-8.9,8.1-18.4,15.6-28.3,22.5l-9-17.5l-21.7,11.2l10.1,19.6
		c-13.8,8.1-28,14.9-42.1,20.1l-8.8-23.6L277,331l8.3,22.4c-12.1,3-23.7,4.6-34.5,4.6c-11.5,0-23.1-1.4-35-4.2l7.6-22.1l-23.1-7.9
		l-7.7,22.6c-12.5-4.9-25.5-11.3-39.3-19.6l10.2-18.6l-21.4-11.8l-9.4,17.1c-10.5-7.1-21.4-15.2-33-24.3l15.6-18.3l-18.6-15.8
		L80.7,274c0,0,0,0,0,0l-1.4,1.7l-31.2,36.8l18.6,15.8L83.9,308c12.9,10.2,25.2,19.2,37,27.1l-15.4,28l21.4,11.8l14.7-26.6
		c15.1,9,29.3,16,43.1,21.3l-8.7,25.4l23.1,7.9l8.9-25.9c14.5,3.7,28.7,5.4,42.9,5.4c13.6,0,28.1-2.1,43.1-6l8.2,22l22.9-8.5
		l-7.8-20.8c15-5.6,30.1-12.7,44.8-21.2l12.8,24.8l21.7-11.2l-13.8-26.7c11.5-7.9,22.6-16.6,32.9-26l17,19.7l18.5-16L401.7,255.3z"
		/>
</g>
</svg>
