<?xml version="1.0" encoding="utf-8"?>
<!-- Generator: Adobe Illustrator 19.0.0, SVG Export Plug-In . SVG Version: 6.00 Build 0)  -->
<svg version="1.1" id="Layer_1" xmlns="http://www.w3.org/2000/svg" xmlns:xlink="http://www.w3.org/1999/xlink" x="0px" y="0px"
	 viewBox="0 0 500 500" style="enable-background:new 0 0 500 500;" xml:space="preserve">
<g id="XMLID_1_">
	<path id="XMLID_388_" d="M435.9,305.1c-24.1,7.8-33.7,25.8-37.7,48c-0.8,4.4-2.8,8.7-4.7,12.9c-5.5,12.3-10.1,15.7-23.3,13.7
		c-15.2-2.2-26.4,2-36,14.3c-12.1,15.4-22.9,16.8-40.8,8.1c-0.4-0.2-0.8-0.3-1.1-0.5c-16.2-11.7-31.1-11.7-45.3,3.9
		c-7.4,8.2-15.9,7.8-24.2,0.4c-2.8-2.5-6.1-4.4-9-6.7c-12.2-9.8-24.4-12.4-38.9-3.6c-11.1,6.8-19.3,4.9-27.9-5
		c-7.6-8.8-14.5-18.4-20.1-28.5c-12.5-22.5-29.9-34.1-56.4-28.7c-2,0.4-4.1,0.1-6.3,0.1c13.2-15.9,35.5-20.8,55-11.6
		c7.9,3.7,15.5,8.2,22.8,13c7.1,4.6,14,5.5,21,0.9c8.2-5.4,16.4-5.8,24.8-1.4c20.7,10.8,39.4,12.5,56.7-7.7
		c7.8-9.1,19.7-7.8,29.6-0.6c2.4,1.7,4.6,3.6,6.8,5.5c19.6,15.8,21.3,15.9,42.2,1.4c7.5-5.2,15.5-7.9,24.6-6.5
		c5.8,0.9,11.6,1.2,17.4,2.2c12.9,2.3,22-1,28.2-13.9C399,302.9,421,298.5,435.9,305.1z"/>
	<path id="XMLID_382_" d="M136.3,226.3c3.4-27.1,11.1-54.4,33.4-75.3c12.8-12,27.8-16.5,44.9-10.5c16.5,5.8,23.3,19.2,24,34.9
		c1.5,34.8-9.9,64.8-38,86.8c-13.6,10.6-28.9,12.4-44.6,4.2C140.7,258.4,137,244.2,136.3,226.3z"/>
	<path id="XMLID_344_" d="M278.5,276.8c-16,7.5-31.5,7.8-47,2.2c8.1-10,16-19.7,24-29.6C262.7,258.1,270.3,267.1,278.5,276.8z"/>
	<path id="XMLID_3_" d="M385.9,164.9c-5.3-19.7-14-36.7-27.7-51.2c-9-9.6-21.7-17.7-34.3-21.7c-41.4-13.3-71.9,12.5-68.3,55.7
		c2.5,30.3,12,58.2,30.5,82.2c8.8,11.4,19.4,22.2,31.4,30c23.7,15.4,51.2,7.7,63.8-17.2C391.7,221.7,392.7,192.2,385.9,164.9z"/>
</g>
</svg>
