<?xml version="1.0" encoding="utf-8"?>
<!-- Generator: Adobe Illustrator 19.0.0, SVG Export Plug-In . SVG Version: 6.00 Build 0)  -->
<svg version="1.1" id="Layer_1" xmlns="http://www.w3.org/2000/svg" xmlns:xlink="http://www.w3.org/1999/xlink" x="0px" y="0px"
	 viewBox="0 0 500 500" style="enable-background:new 0 0 500 500;" xml:space="preserve">
<g id="XMLID_1_">
	<path id="XMLID_850_" d="M85.8,188.7c1.2-6.9,2.7-10.3,2.2-13.4c-1.7-11.8-5.5-23.5-5.7-35.3c-0.5-26.5,15.6-46,41-52.4
		c24.5-6.2,46.4,2.8,59.4,25.5c5.9,10.4,10.3,21.7,14.8,32.8c11.8,29.1,13.5,31.2,39.3,45C209.8,237.8,119.2,241.8,85.8,188.7z"/>
	<path id="XMLID_849_" d="M257.7,189.2c26.5-4.1,34.1-21.2,41.8-38.2c5.3-11.7,9.3-24,15.3-35.2c14.8-27.5,38.5-35.4,66.9-25.8
		c26.5,8.9,39.9,39.9,34.9,64.1c-1.8,8.5-5.2,16.8-8.1,25.8c1.9,1.7,4.1,3.7,6.7,6c-15.4,23.8-38.4,36.4-65.4,40.4
		C315.1,231.3,285.8,219,257.7,189.2z"/>
	<polygon id="XMLID_2_" points="255.1,240.2 218.1,299.6 289,298.1 	"/>
	<polygon id="XMLID_3_" points="100.8,295.8 104.6,332.9 149.2,330 170.6,390.1 215.6,368.4 252,414.3 289.2,369.5 335.2,390.1 
		359.7,324.2 399.2,322 399.2,272.2 391.4,311 344.4,307.5 324.9,355.8 284.8,332.5 251.4,371.1 220.6,334.3 179.6,357.5 
		159.4,308.9 109.8,320.7 	"/>
</g>
</svg>
