<?xml version="1.0" encoding="utf-8"?>
<!-- Generator: Adobe Illustrator 19.0.0, SVG Export Plug-In . SVG Version: 6.00 Build 0)  -->
<svg version="1.1" id="Layer_1" xmlns="http://www.w3.org/2000/svg" xmlns:xlink="http://www.w3.org/1999/xlink" x="0px" y="0px"
	 viewBox="0 0 500 500" style="enable-background:new 0 0 500 500;" xml:space="preserve">
<g id="XMLID_1_">
	<path id="XMLID_2_" d="M108,199.3c-1.6,0.1-3.6,0.2-7.4,0.4c23.2,29.5,53.7,35.2,86.9,32.3c22-1.9,41.3-9.7,52.5-32.7
		c-19.5-0.9-29.3-12.4-35.7-27.9c-3-7.3-5.3-14.9-8.6-22c-3.4-7.6-6.8-15.4-11.6-22.1c-13.4-18.6-39.9-24.8-63-15.6
		c-17.8,7.1-25.6,22.3-22.3,47.4C100.5,172.7,104.8,186,108,199.3z"/>
	<path id="XMLID_7_" d="M270.4,265.6c-7.3-12.5-13.9-23.7-21.3-36.2c-7.7,12.8-14.3,23.8-21.8,36.2
		C242.6,265.6,255.5,265.6,270.4,265.6z"/>
	<path id="XMLID_8_" d="M420.5,236.6c2.4-6,3.9-10.8,4.9-14.1c1-3.3,1.4-5.1,1.4-5.1s-2.9,6.7-9.3,17.7c-3.2,5.5-7.3,12-12.3,19.2
		c-2.2,3.1-4.6,6.4-7.2,9.7c-4.4-3.5-8.9-6.5-12.6-8.7c-2.5-1.5-4.7-2.6-6.3-3.3c-1.6-0.7-2.6-1.1-2.6-1.1s0.5,0.9,1.5,2.4
		c1,1.5,2.4,3.5,4.3,5.7c2.8,3.4,6.5,7.4,10.7,11.3c-1.9,2.3-3.8,4.6-5.9,6.9c-6.5,7.1-13.9,14.4-22.2,21.3
		c-4.8-5.7-9.8-10.9-14.2-14.7c-2.7-2.3-5.1-4.2-6.9-5.4c-1.7-1.2-2.8-1.9-2.8-1.9s0.3,1.2,1.1,3.2c0.7,2,1.9,4.8,3.5,8
		c2.6,5.2,6.3,11.4,10.7,17.5c-7.9,5.8-16.6,11.2-25.8,16c-3.6,1.8-7.4,3.5-11.2,5.1c-0.5-1.3-1.1-2.7-1.7-4
		c-1.1-2.7-2.3-5.3-3.6-7.8c-2.4-5-5-9.6-7.3-13.4c-2.4-3.8-4.6-7-6.3-9.1c-1.6-2.1-2.7-3.3-2.7-3.3s0,1.6,0.1,4.3
		c0.2,2.7,0.5,6.5,1.3,11c0.7,4.5,1.9,9.6,3.3,14.9c0.7,2.7,1.5,5.4,2.5,8.2c0.4,1.3,0.9,2.6,1.3,3.9c-4.4,1.4-8.9,2.7-13.5,3.9
		c-3.3,0.7-6.7,1.4-10.1,2.1c-3.4,0.5-6.8,1-10.3,1.5c-3.4,0.3-6.8,0.6-10.2,0.9c-0.8,0.1-1.7,0.1-2.5,0.1c0-1-0.1-2.1-0.1-3.1
		c-0.1-3.2-0.5-6.3-0.8-9.4c-0.7-6.1-1.8-11.8-3-16.6c-1.2-4.9-2.6-8.9-3.7-11.8c-1.1-2.8-2-4.5-2-4.5s-0.8,1.6-2,4.5
		c-1.1,2.8-2.5,6.9-3.7,11.8c-1.2,4.9-2.3,10.5-3,16.6c-0.4,3-0.7,6.2-0.8,9.4c-0.1,1.1-0.1,2.2-0.1,3.3
		c-10.2-0.4-20.5-1.5-30.3-3.4c-6.4-1.3-12.8-2.9-19-4.8c0.4-1,0.7-2,1.1-3.1c0.9-2.6,1.7-5.1,2.4-7.6c1.4-5,2.4-9.8,3.1-13.9
		c0.7-4.2,1-7.7,1.2-10.3c0.2-2.5,0.1-4,0.1-4s-1.1,1.1-2.7,3c-1.6,1.9-3.8,4.8-6.1,8.3c-2.3,3.5-4.8,7.7-7.1,12.4
		c-1.2,2.3-2.4,4.7-3.4,7.2c-0.5,1.1-1,2.3-1.5,3.4c-2.1-0.8-4.2-1.7-6.3-2.6c-11.3-5.2-21.8-11.3-31.2-18.1
		c4.4-6.4,8.2-13,10.6-18.4c1.4-3.2,2.5-6,3.2-8c0.7-2,1-3.2,1-3.2s-1.1,0.6-2.8,1.9c-1.7,1.2-4,3.1-6.6,5.5
		c-4.4,4-9.4,9.5-14.1,15.5c-6.7-5.5-12.8-11.2-18.2-16.9c-3.6-3.8-6.9-7.6-10-11.3c4.5-4.2,8.6-8.5,11.5-12.2
		c1.8-2.3,3.2-4.3,4.2-5.7c1-1.4,1.4-2.4,1.4-2.4s-1,0.3-2.5,1.1c-1.6,0.7-3.8,1.9-6.3,3.3c-4,2.3-8.8,5.7-13.4,9.5
		c-1.2-1.6-2.4-3.2-3.6-4.7c-5.1-7.1-9.3-13.6-12.5-19c-6.4-10.9-9.3-17.7-9.3-17.7s0.4,1.8,1.4,5.1c1,3.3,2.5,8.1,5,14.1
		c2.4,6,5.7,13.1,10.1,21c1.1,2,2.2,4,3.5,6c-5,4.5-9.6,9.3-12.8,13.4c-1.8,2.3-3.2,4.3-4.2,5.7c-1,1.4-1.4,2.3-1.4,2.3
		s1-0.4,2.5-1.1c1.6-0.7,3.8-1.9,6.3-3.3c4.2-2.5,9.2-6,14.1-10c2.7,4,5.6,8.1,8.9,12.3c5.3,6.8,11.5,13.7,18.6,20.3
		c-3.6,5.5-6.6,10.9-8.7,15.5c-1.4,3.2-2.5,6-3.2,8c-0.7,2-1,3.2-1,3.2s1.1-0.6,2.8-1.9c1.7-1.2,4-3.1,6.6-5.5
		c3.6-3.2,7.6-7.5,11.5-12.3c9.5,7.9,20.3,15.4,32.5,21.3c2.4,1.2,4.9,2.4,7.4,3.5c-0.6,1.8-1.2,3.6-1.7,5.4
		c-1.4,5-2.4,9.8-3.1,13.9c-0.7,4.2-1,7.7-1.2,10.3c-0.2,2.5-0.1,4-0.1,4s1.1-1.1,2.7-3c1.6-1.9,3.8-4.8,6.1-8.3
		c2.3-3.5,4.8-7.7,7.1-12.4c0.8-1.6,1.6-3.3,2.4-4.9c7,2.5,14.3,4.6,21.7,6.2c11.1,2.4,22.3,3.7,33.8,4.2c0.2,3,0.4,6,0.8,8.8
		c0.7,6.1,1.8,11.8,3,16.6c1.2,4.9,2.6,8.9,3.7,11.8c1.1,2.8,2,4.5,2,4.5s0.8-1.6,2-4.5c1.1-2.8,2.5-6.9,3.7-11.8
		c1.2-4.9,2.3-10.5,3-16.6c0.3-2.9,0.6-5.9,0.8-8.9c1.1,0,2.2-0.1,3.4-0.2c3.9-0.4,7.7-0.7,11.5-1.1c3.7-0.6,7.5-1.2,11.2-1.8
		c3.7-0.8,7.3-1.7,11-2.5c5.3-1.3,10.5-3,15.5-4.8c0.8,1.9,1.7,3.7,2.5,5.5c2.4,5,5,9.6,7.3,13.4c2.4,3.8,4.6,6.9,6.3,9.1
		c1.6,2.1,2.7,3.3,2.7,3.3s0.1-1.6-0.1-4.3c-0.2-2.7-0.5-6.5-1.3-11c-0.7-4.5-1.9-9.6-3.3-14.9c-0.6-2-1.2-4.1-1.8-6.2
		c4.4-2,8.8-4.2,12.9-6.5c9.9-5.5,18.9-11.9,26.9-18.8c4.3,5.1,8.8,9.6,12.8,13c2.7,2.3,5.1,4.2,6.9,5.4c1.7,1.2,2.8,1.9,2.8,1.9
		s-0.3-1.2-1.1-3.2c-0.7-2-1.9-4.8-3.5-8c-2.4-4.9-5.8-10.6-9.8-16.3c8.6-8.1,16-16.7,22.1-25c1.8-2.4,3.5-4.8,5.1-7.2
		c5.1,4.2,10.4,7.9,14.8,10.5c2.5,1.5,4.7,2.6,6.3,3.3c1.6,0.7,2.6,1.1,2.6,1.1s-0.5-0.9-1.5-2.4c-1-1.5-2.4-3.5-4.3-5.8
		c-3.4-4.2-8.2-9.1-13.4-13.8c2.4-3.9,4.6-7.8,6.6-11.4C415,249.8,418.1,242.6,420.5,236.6z"/>
	<path id="XMLID_9_" d="M320,233c33.1,0.4,61.7-8.7,79.1-40h-8.3c9-14.4,10.2-30.3,7.8-46.9c-4.5-31.3-26.7-45.5-56.9-37.4
		c-20.3,5.5-33.2,17.4-39,37.5c-1.8,6.2-4.3,12.2-6.6,18.3c-6.6,18.1-16,33.4-37.9,35.1C269.4,222,288.8,232.6,320,233z"/>
</g>
</svg>
